<?xml version="1.0" encoding="UTF-8" standalone="no"?>
<!-- Created with Inkscape (http://www.inkscape.org/) -->

<svg
   width="400"
   height="300"
   viewBox="0 0 105.83333 79.375"
   version="1.1"
   id="svg2608"
   sodipodi:docname="open.svg"
   inkscape:version="1.2.2 (732a01da63, 2022-12-09)"
   xmlns:inkscape="http://www.inkscape.org/namespaces/inkscape"
   xmlns:sodipodi="http://sodipodi.sourceforge.net/DTD/sodipodi-0.dtd"
   xmlns="http://www.w3.org/2000/svg"
   xmlns:svg="http://www.w3.org/2000/svg">
  <sodipodi:namedview
     id="namedview49073"
     pagecolor="#ffffff"
     bordercolor="#000000"
     borderopacity="0.25"
     inkscape:showpageshadow="2"
     inkscape:pageopacity="0.0"
     inkscape:pagecheckerboard="0"
     inkscape:deskcolor="#d1d1d1"
     showgrid="false"
     inkscape:zoom="4.2497118"
     inkscape:cx="210.83783"
     inkscape:cy="140.95074"
     inkscape:window-width="2560"
     inkscape:window-height="1369"
     inkscape:window-x="-8"
     inkscape:window-y="-8"
     inkscape:window-maximized="1"
     inkscape:current-layer="svg2608" />
  <defs
     id="defs2605" />
  <path
     style="fill:#ffffff;stroke:#000000;stroke-width:0.264583;stroke-linecap:square;stroke-miterlimit:2.4;stroke-dasharray:none;paint-order:fill markers stroke"
     d="M 29.475932,21.084436 23.637507,42.873728 76.357394,56.999981 82.195817,35.210689 Z"
     id="path49577" />
  <path
     style="fill:#ffffff;stroke:#000000;stroke-width:0.26458333;stroke-linecap:square;stroke-miterlimit:2.4;stroke-dasharray:none;paint-order:fill markers stroke"
     d="m 19.132428,55.59465 -2e-6,-12.831536 57.97391,15.534066 2e-6,12.831534 z"
     id="path4745" />
  <path
     style="fill:#ffffff;stroke:#000000;stroke-width:0.26458333;stroke-linecap:square;stroke-miterlimit:2.4;stroke-dasharray:none;paint-order:fill markers stroke"
     d="M 28.452857,7.9787732 86.42677,23.512837 86.7009,22.489768 28.72699,6.955705 28.452857,7.9787732"
     id="path4749-1-2-1" />
  <path
     style="fill:#ffffff;stroke:#000000;stroke-width:0.26458333;stroke-linecap:square;stroke-miterlimit:2.4;stroke-dasharray:none;paint-order:fill markers stroke"
     d="M 19.132421,42.763117 77.106333,58.29718 77.380463,57.274111 19.406555,41.740048 19.132421,42.763117"
     id="path4749-1-2-8-0" />
  <path
     style="fill:#ffffff;stroke:#000000;stroke-width:0.26458333;stroke-linecap:square;stroke-miterlimit:2.4;stroke-dasharray:none;paint-order:fill markers stroke"
     d="m 28.452859,7.978771 -9.046307,33.761277 1.023069,0.27413 L 29.475928,8.2529028 28.452859,7.978771"
     id="path4749-1-2-8-1-8" />
  <path
     style="fill:#ffffff;stroke:#000000;stroke-width:0.26458333;stroke-linecap:square;stroke-miterlimit:2.4;stroke-dasharray:none;paint-order:fill markers stroke"
     d="m 85.403701,23.238705 -9.046307,33.761277 1.023069,0.27413 9.046307,-33.761275 -1.023069,-0.274132"
     id="path4749-1-2-8-1-0-4" />
  <path
     style="fill:#ffffff;stroke:#000000;stroke-width:0.26458333;stroke-linecap:square;stroke-miterlimit:2.4;stroke-dasharray:none;paint-order:fill markers stroke"
     d="M 50.107817,13.781202 41.06151,47.542479 42.084579,47.81661 51.130886,14.055334 50.107817,13.781202"
     id="path4749-1-2-8-1-0-7-9" />
  <path
     style="fill:#ffffff;stroke:#000000;stroke-width:0.26458333;stroke-linecap:square;stroke-miterlimit:2.4;stroke-dasharray:none;paint-order:fill markers stroke"
     d="M 81.154665,39.09627 46.881864,29.9129 46.607733,30.935969 80.880522,40.119335 81.154665,39.09627"
     id="path4749-1-2-8-1-0-7-8-4" />
  <path
     style="fill:#ffffff;stroke:#000000;stroke-width:0.26458333;stroke-linecap:square;stroke-miterlimit:2.4;stroke-dasharray:none;paint-order:fill markers stroke"
     d="m 62.976836,35.322057 -4.523154,16.880638 1.023069,0.27413 4.523153,-16.880636 -1.023068,-0.274132"
     id="path4749-1-2-8-1-0-7-2-7" />
  <path
     style="fill:#ffffff;stroke:#000000;stroke-width:0.26458333;stroke-linecap:square;stroke-miterlimit:2.4;stroke-dasharray:none;paint-order:fill markers stroke"
     d="m 19.132426,55.594649 57.973913,15.534063 -3e-6,1.290584 -57.97391,-15.534065 2e-6,-1.290584"
     id="path5737" />
  <path
     style="fill:#ffffff;stroke:#000000;stroke-width:0.26458333;stroke-linecap:square;stroke-miterlimit:2.4;stroke-dasharray:none;paint-order:fill markers stroke"
     d="m 77.106336,71.128714 9.594567,-35.807407 v 1.290582 l -9.594567,35.807407 z"
     id="path5739" />
  <path
     style="fill:#ffffff;stroke:#000000;stroke-width:0.26458333;stroke-linecap:square;stroke-miterlimit:2.4;stroke-dasharray:none;paint-order:fill markers stroke"
     d="m 77.380463,57.274112 4e-6,12.83153 -0.274131,1.023072 V 58.297178 Z"
     id="path5741" />
  <path
     style="fill:#ffffff;stroke:#000000;stroke-width:0.26458333;stroke-linecap:square;stroke-miterlimit:2.4;stroke-dasharray:none;paint-order:fill markers stroke"
     d="m 20.429622,42.014179 3.207885,0.85955 5.838426,-21.789293 -3e-6,-12.8315326 z"
     id="path5745" />
  <path
     style="fill:#ffffff;stroke:#000000;stroke-width:0.26458333;stroke-linecap:square;stroke-miterlimit:2.4;stroke-dasharray:none;paint-order:fill markers stroke"
     d="M 29.475933,21.084436 46.899938,25.753184 50.107818,13.781202 29.47593,8.2529034 Z"
     id="path5747"
     sodipodi:nodetypes="ccccc" />
  <path
     style="fill:#ffffff;stroke:#000000;stroke-width:0.26458333;stroke-linecap:square;stroke-miterlimit:2.4;stroke-dasharray:none;paint-order:fill markers stroke"
     d="m 51.130889,14.055333 -4.249024,15.857567 3.207888,0.85955 1.041138,-3.885584 -2e-6,-12.831533"
     id="path5749" />
  <path
     style="fill:#ffffff;stroke:#000000;stroke-width:0.26458333;stroke-linecap:square;stroke-miterlimit:2.4;stroke-dasharray:none;paint-order:fill markers stroke"
     d="m 51.130889,14.055333 2e-6,12.831532 31.06493,8.323824 3.207881,-11.971985 z"
     id="path5751" />
  <path
     style="fill:#ffffff;stroke:#000000;stroke-width:0.26458333;stroke-linecap:square;stroke-miterlimit:2.4;stroke-dasharray:none;paint-order:fill markers stroke"
     d="m 46.607737,30.935969 v 12.831534 l -1.315268,4.908654 -3.207889,-0.85955 z"
     id="path5753" />
  <path
     style="fill:#ffffff;stroke:#000000;stroke-width:0.26458333;stroke-linecap:square;stroke-miterlimit:2.4;stroke-dasharray:none;paint-order:fill markers stroke"
     d="m 46.607737,30.935969 v 12.831534 l 13.161217,3.526536 3.207885,-11.971983 z"
     id="path5755" />
  <path
     style="fill:#ffffff;stroke:#000000;stroke-width:0.26458333;stroke-linecap:square;stroke-miterlimit:2.4;stroke-dasharray:none;paint-order:fill markers stroke"
     d="m 63.999905,35.596187 -4.523153,16.880637 3.207886,0.85955 1.315271,-4.908654 -4e-6,-12.831533"
     id="path5757" />
  <path
     style="fill:#ffffff;stroke:#000000;stroke-width:0.26458333;stroke-linecap:square;stroke-miterlimit:2.4;stroke-dasharray:none;paint-order:fill markers stroke"
     d="m 63.999905,35.596187 4e-6,12.831533 13.672759,3.663603 3.207882,-11.97198 z"
     id="path5759" />
  <path
     style="fill:#ffffff;stroke:#000000;stroke-width:0.26458333;stroke-linecap:square;stroke-miterlimit:2.4;paint-order:fill markers stroke;stroke-dasharray:none"
     d="m 77.380464,57.274113 9.046305,-33.761276 8e-6,12.831533 -9.04631,33.761272 z"
     id="path49575" />
  <path
     style="fill:#ffffff;stroke:#000000;stroke-width:0.264583;stroke-linecap:square;stroke-miterlimit:2.4;stroke-dasharray:none;paint-order:fill markers stroke"
     d="m 86.700903,22.489767 v 12.83154 l -0.274127,1.023063 -4e-6,-12.831535 z"
     id="path5743"
     sodipodi:nodetypes="ccccc" />
</svg>
